<svg fill="none" height="800" viewBox="0 0 24 24" width="800" xmlns="http://www.w3.org/2000/svg"><g stroke-width="1.5"><path d="m3.20258 8.7002h17.59482" stroke="#0095ff"/><path d="m2.88539 8.84875c.67266-2.70892 2.82063-4.80341 5.54517-5.40713l.45387-.10057c2.05217-.45473 4.17897-.45473 6.23117 0l.4538.10057c2.7246.60372 4.8726 2.69822 5.5452 5.40713.5139 2.06945.5139 4.23315 0 6.30245-.6726 2.709-2.8206 4.8035-5.5452 5.4072l-.4538.1006c-2.0522.4547-4.179.4547-6.23117 0l-.45387-.1006c-2.72455-.6037-4.87251-2.6982-5.54517-5.4071-.51385-2.0694-.51385-4.2332 0-6.30255z" stroke="#0095ff"/><g stroke-linecap="round"><path d="m21.1146 15.1512c.5139-2.0693.5139-4.233 0-6.30245-.6726-2.70891-2.8206-4.80341-5.5452-5.40713l-.4538-.10057c-2.0522-.45473-4.179-.45473-6.23117 0l-.45387.10057c-2.72454.60372-4.87251 2.69821-5.54517 5.40713-.51385 2.06935-.51385 4.23315 0 6.30255.67266 2.7089 2.82062 4.8034 5.54517 5.4071l.45387.1006" stroke="#363853"/><path d="m7 12h4" stroke="#0095ff"/></g></g></svg>